<svg width="660" height="304" viewBox="0 0 660 304" xmlns="http://www.w3.org/2000/svg" font-family="-apple-system, BlinkMacSystemFont, 'Segoe UI', sans-serif">
  <rect x="0" y="0" width="660" height="304" fill="#f6f8fa" rx="10"/>
  <text x="330.0" y="26.0" font-size="14" fill="#24292f" text-anchor="middle" font-weight="700">Learning Rate = 한 걸음의 보폭</text>
  <defs><marker id="dot" markerWidth="7" markerHeight="7" refX="5.5" refY="2.6" orient="auto"><path d="M0,0 L5.5,2.6 L0,5.2 z" fill="#57606a"/></marker></defs>
  <rect x="10" y="44" width="200" height="248" rx="10" fill="#ffffff" stroke="#d0d7de" stroke-width="1.5"/>
  <text x="110.0" y="66.0" font-size="12" fill="#0969da" text-anchor="middle" font-weight="700">너무 작으면</text>
  <polyline points="15.9,84.0 19.9,95.2 24.0,106.0 28.0,116.2 32.0,125.9 36.1,135.2 40.2,143.9 44.2,152.1 48.3,159.9 52.3,167.1 56.4,173.8 60.4,180.1 64.5,185.8 68.5,191.0 72.6,195.8 76.6,200.0 80.7,203.8 84.7,207.0 88.8,209.8 92.8,212.0 96.9,213.8 100.9,215.0 105.0,215.8 109.0,216.0 113.1,215.8 117.1,215.0 121.2,213.8 125.2,212.0 129.3,209.8 133.3,207.0 137.4,203.8 141.4,200.0 145.5,195.8 149.5,191.0 153.6,185.8 157.6,180.1 161.7,173.8 165.7,167.1 169.8,159.9 173.8,152.1 177.9,143.9 181.9,135.2 186.0,125.9 190.0,116.2 194.1,106.0 198.1,95.2 202.2,84.0" fill="none" stroke="#d0d7de" stroke-width="2.5"/>
  <circle cx="109.0" cy="216.0" r="3.5" fill="#57606a"/>
  <text x="109.0" y="234.0" font-size="10" fill="#57606a" text-anchor="middle" font-weight="400">최저점</text>
  <line x1="24.0" y1="106.0" x2="32.5" y2="126.9" stroke="#0969da" stroke-width="1.8" marker-end="url(#dot)" opacity="0.9"/>
  <circle cx="24.0" cy="106.0" r="3.5" fill="#0969da"/>
  <line x1="32.5" y1="126.9" x2="40.1" y2="143.8" stroke="#0969da" stroke-width="1.8" marker-end="url(#dot)" opacity="0.9"/>
  <circle cx="32.5" cy="126.9" r="3.5" fill="#0969da"/>
  <line x1="40.1" y1="143.8" x2="47.0" y2="157.5" stroke="#0969da" stroke-width="1.8" marker-end="url(#dot)" opacity="0.9"/>
  <circle cx="40.1" cy="143.8" r="3.5" fill="#0969da"/>
  <line x1="47.0" y1="157.5" x2="53.2" y2="168.6" stroke="#0969da" stroke-width="1.8" marker-end="url(#dot)" opacity="0.9"/>
  <circle cx="47.0" cy="157.5" r="3.5" fill="#0969da"/>
  <line x1="53.2" y1="168.6" x2="58.8" y2="177.6" stroke="#0969da" stroke-width="1.8" marker-end="url(#dot)" opacity="0.9"/>
  <circle cx="53.2" cy="168.6" r="3.5" fill="#0969da"/>
  <line x1="58.8" y1="177.6" x2="63.8" y2="184.9" stroke="#0969da" stroke-width="1.8" marker-end="url(#dot)" opacity="0.9"/>
  <circle cx="58.8" cy="177.6" r="3.5" fill="#0969da"/>
  <circle cx="63.8" cy="184.9" r="3.5" fill="#0969da"/>
  <text x="110.0" y="256.0" font-size="11" fill="#0969da" text-anchor="middle" font-weight="700">조금씩만 수정</text>
  <text x="110.0" y="274.0" font-size="11" fill="#0969da" text-anchor="middle" font-weight="400">학습이 느림</text>
  <rect x="230" y="44" width="200" height="248" rx="10" fill="#ffffff" stroke="#d0d7de" stroke-width="1.5"/>
  <text x="330.0" y="66.0" font-size="12" fill="#1a7f37" text-anchor="middle" font-weight="700">적절하면</text>
  <polyline points="235.9,84.0 239.9,95.2 244.0,106.0 248.0,116.2 252.1,125.9 256.1,135.2 260.1,143.9 264.2,152.1 268.2,159.9 272.3,167.1 276.4,173.8 280.4,180.1 284.5,185.8 288.5,191.0 292.6,195.8 296.6,200.0 300.7,203.8 304.7,207.0 308.8,209.8 312.8,212.0 316.9,213.8 320.9,215.0 324.9,215.8 329.0,216.0 333.1,215.8 337.1,215.0 341.2,213.8 345.2,212.0 349.2,209.8 353.3,207.0 357.4,203.8 361.4,200.0 365.5,195.8 369.5,191.0 373.6,185.8 377.6,180.1 381.7,173.8 385.7,167.1 389.8,159.9 393.8,152.1 397.9,143.9 401.9,135.2 406.0,125.9 410.0,116.2 414.1,106.0 418.1,95.2 422.2,84.0" fill="none" stroke="#d0d7de" stroke-width="2.5"/>
  <circle cx="329.0" cy="216.0" r="3.5" fill="#57606a"/>
  <text x="329.0" y="234.0" font-size="10" fill="#57606a" text-anchor="middle" font-weight="400">최저점</text>
  <line x1="243.9" y1="106.0" x2="303.5" y2="206.1" stroke="#1a7f37" stroke-width="1.8" marker-end="url(#dot)" opacity="0.9"/>
  <circle cx="243.9" cy="106.0" r="3.5" fill="#1a7f37"/>
  <line x1="303.5" y1="206.1" x2="321.3" y2="215.1" stroke="#1a7f37" stroke-width="1.8" marker-end="url(#dot)" opacity="0.9"/>
  <circle cx="303.5" cy="206.1" r="3.5" fill="#1a7f37"/>
  <line x1="321.3" y1="215.1" x2="326.7" y2="215.9" stroke="#1a7f37" stroke-width="1.8" marker-end="url(#dot)" opacity="0.9"/>
  <circle cx="321.3" cy="215.1" r="3.5" fill="#1a7f37"/>
  <line x1="326.7" y1="215.9" x2="328.3" y2="216.0" stroke="#1a7f37" stroke-width="1.8" marker-end="url(#dot)" opacity="0.9"/>
  <circle cx="326.7" cy="215.9" r="3.5" fill="#1a7f37"/>
  <circle cx="328.3" cy="216.0" r="3.5" fill="#1a7f37"/>
  <text x="330.0" y="256.0" font-size="11" fill="#1a7f37" text-anchor="middle" font-weight="700">빠르고 안정적으로</text>
  <text x="330.0" y="274.0" font-size="11" fill="#1a7f37" text-anchor="middle" font-weight="400">Loss 감소</text>
  <rect x="450" y="44" width="200" height="248" rx="10" fill="#ffffff" stroke="#d0d7de" stroke-width="1.5"/>
  <text x="550.0" y="66.0" font-size="12" fill="#cf222e" text-anchor="middle" font-weight="700">너무 크면</text>
  <polyline points="455.9,84.0 459.9,95.2 464.0,106.0 468.0,116.2 472.1,125.9 476.1,135.2 480.1,143.9 484.2,152.1 488.2,159.9 492.3,167.1 496.4,173.8 500.4,180.1 504.5,185.8 508.5,191.0 512.5,195.8 516.6,200.0 520.6,203.8 524.7,207.0 528.8,209.8 532.8,212.0 536.9,213.8 540.9,215.0 545.0,215.8 549.0,216.0 553.1,215.8 557.1,215.0 561.1,213.8 565.2,212.0 569.2,209.8 573.3,207.0 577.4,203.8 581.4,200.0 585.5,195.8 589.5,191.0 593.6,185.8 597.6,180.1 601.6,173.8 605.7,167.1 609.8,159.9 613.8,152.1 617.9,143.9 621.9,135.2 626.0,125.9 630.0,116.2 634.1,106.0 638.1,95.2 642.2,84.0" fill="none" stroke="#d0d7de" stroke-width="2.5"/>
  <circle cx="549.0" cy="216.0" r="3.5" fill="#57606a"/>
  <text x="549.0" y="234.0" font-size="10" fill="#57606a" text-anchor="middle" font-weight="400">최저점</text>
  <line x1="508.5" y1="191.0" x2="606.5" y2="165.7" stroke="#cf222e" stroke-width="1.8" marker-end="url(#dot)" opacity="0.9"/>
  <circle cx="508.5" cy="191.0" r="3.5" fill="#cf222e"/>
  <line x1="606.5" y1="165.7" x2="467.3" y2="114.5" stroke="#cf222e" stroke-width="1.8" marker-end="url(#dot)" opacity="0.9"/>
  <circle cx="606.5" cy="165.7" r="3.5" fill="#cf222e"/>
  <line x1="467.3" y1="114.5" x2="642.1" y2="84.0" stroke="#cf222e" stroke-width="1.8" marker-end="url(#dot)" opacity="0.9"/>
  <circle cx="467.3" cy="114.5" r="3.5" fill="#cf222e"/>
  <line x1="642.1" y1="84.0" x2="455.9" y2="84.0" stroke="#cf222e" stroke-width="1.8" marker-end="url(#dot)" opacity="0.9"/>
  <circle cx="642.1" cy="84.0" r="3.5" fill="#cf222e"/>
  <circle cx="455.9" cy="84.0" r="3.5" fill="#cf222e"/>
  <text x="550.0" y="256.0" font-size="11" fill="#cf222e" text-anchor="middle" font-weight="700">최적점을 지나침</text>
  <text x="550.0" y="274.0" font-size="11" fill="#cf222e" text-anchor="middle" font-weight="400">흔들리거나 발산</text>
</svg>
