<svg width="720" height="232" viewBox="0 0 720 232" xmlns="http://www.w3.org/2000/svg" font-family="-apple-system, BlinkMacSystemFont, 'Segoe UI', sans-serif">
  <rect x="0" y="0" width="720" height="232" fill="#f6f8fa" rx="10"/>
  <defs><marker id="a" markerWidth="8" markerHeight="8" refX="6.4" refY="3" orient="auto"><path d="M0,0 L6.4,3 L0,6 z" fill="#57606a"/></marker>
  <marker id="ar" markerWidth="8" markerHeight="8" refX="6.4" refY="3" orient="auto"><path d="M0,0 L6.4,3 L0,6 z" fill="#cf222e"/></marker></defs>
  <text x="360" y="26" font-size="14" fill="#24292f" text-anchor="middle" font-weight="700">keepdims=True는 계산한 축을 크기 1로 남긴다</text>
  <rect x="30" y="44" width="320" height="170" rx="8" fill="#ffffff" stroke="#d0d7de" stroke-width="1.5"/>
  <text x="190" y="66" font-size="11.5" fill="#57606a" text-anchor="middle" font-weight="700">keepdims 없음</text>
  <rect x="60" y="88" width="34" height="28" rx="3" fill="#eaf2fb" stroke="#0969da" stroke-width="1.2"/>
  <rect x="98" y="88" width="34" height="28" rx="3" fill="#eaf2fb" stroke="#0969da" stroke-width="1.2"/>
  <rect x="136" y="88" width="34" height="28" rx="3" fill="#eaf2fb" stroke="#0969da" stroke-width="1.2"/>
  <rect x="60" y="120" width="34" height="28" rx="3" fill="#eaf2fb" stroke="#0969da" stroke-width="1.2"/>
  <rect x="98" y="120" width="34" height="28" rx="3" fill="#eaf2fb" stroke="#0969da" stroke-width="1.2"/>
  <rect x="136" y="120" width="34" height="28" rx="3" fill="#eaf2fb" stroke="#0969da" stroke-width="1.2"/>
  <text x="117" y="168" font-size="10" fill="#57606a" text-anchor="middle" font-family="ui-monospace, monospace">(2, 3)</text>
  <line x1="182" y1="118" x2="208" y2="118" stroke="#57606a" stroke-width="1.4" marker-end="url(#a)"/>
  <text x="195" y="138" font-size="8.5" fill="#57606a" text-anchor="middle" font-family="ui-monospace, monospace">np.max(...)</text>
  <rect x="225" y="104" width="34" height="28" rx="3" fill="#eef1f4" stroke="#57606a" stroke-width="1.4"/>
  <rect x="263" y="104" width="34" height="28" rx="3" fill="#eef1f4" stroke="#57606a" stroke-width="1.4"/>
  <text x="261" y="168" font-size="10" fill="#57606a" text-anchor="middle" font-weight="700" font-family="ui-monospace, monospace">(2,)</text>
  <text x="190" y="196" font-size="10" fill="#57606a" text-anchor="middle">축이 사라져 브로드캐스팅이 어긋날 수 있다</text>
  <rect x="370" y="44" width="320" height="170" rx="8" fill="#ffffff" stroke="#d0d7de" stroke-width="1.5"/>
  <text x="530" y="66" font-size="11.5" fill="#1a7f37" text-anchor="middle" font-weight="700">keepdims=True</text>
  <rect x="400" y="88" width="34" height="28" rx="3" fill="#eaf2fb" stroke="#0969da" stroke-width="1.2"/>
  <rect x="438" y="88" width="34" height="28" rx="3" fill="#eaf2fb" stroke="#0969da" stroke-width="1.2"/>
  <rect x="476" y="88" width="34" height="28" rx="3" fill="#eaf2fb" stroke="#0969da" stroke-width="1.2"/>
  <rect x="400" y="120" width="34" height="28" rx="3" fill="#eaf2fb" stroke="#0969da" stroke-width="1.2"/>
  <rect x="438" y="120" width="34" height="28" rx="3" fill="#eaf2fb" stroke="#0969da" stroke-width="1.2"/>
  <rect x="476" y="120" width="34" height="28" rx="3" fill="#eaf2fb" stroke="#0969da" stroke-width="1.2"/>
  <text x="457" y="168" font-size="10" fill="#57606a" text-anchor="middle" font-family="ui-monospace, monospace">(2, 3)</text>
  <line x1="522" y1="118" x2="548" y2="118" stroke="#57606a" stroke-width="1.4" marker-end="url(#a)"/>
  <text x="535" y="138" font-size="8.5" fill="#57606a" text-anchor="middle" font-family="ui-monospace, monospace">np.max(...)</text>
  <rect x="575" y="88" width="34" height="28" rx="3" fill="#eaf6ec" stroke="#1a7f37" stroke-width="1.4"/>
  <rect x="575" y="120" width="34" height="28" rx="3" fill="#eaf6ec" stroke="#1a7f37" stroke-width="1.4"/>
  <text x="592" y="168" font-size="10" fill="#1a7f37" text-anchor="middle" font-weight="700" font-family="ui-monospace, monospace">(2, 1)</text>
  <text x="530" y="196" font-size="10" fill="#57606a" text-anchor="middle">축이 남아 x - max 브로드캐스팅이 자연스럽다</text>
</svg>
